<svg width="106" height="29" viewBox="0 0 106 29" fill="none" xmlns="http://www.w3.org/2000/svg">
<path d="M4.07715 18.0348V16.9315H7.83526V18.3324C7.82931 18.5141 7.86243 18.6949 7.93239 18.8628C8.00235 19.0306 8.10751 19.1814 8.24077 19.3051C8.37403 19.4287 8.53228 19.5224 8.70483 19.5796C8.87739 19.6369 9.06022 19.6565 9.24098 19.637C9.54922 19.6756 9.86065 19.5962 10.1128 19.4147C10.3649 19.2332 10.539 18.9631 10.6002 18.6585C10.7009 18.305 10.6924 17.9292 10.5758 17.5806C9.84681 15.7036 4.87704 14.8515 4.24675 11.9177C4.11804 11.2725 4.11002 10.609 4.2231 9.96081C4.61041 7.60598 6.62278 6.75391 9.11949 6.75391C11.1074 6.75391 13.8487 7.23091 13.8487 10.3889V11.4171H10.3556V10.5145C10.3689 10.3394 10.3441 10.1635 10.2829 9.99897C10.2218 9.8344 10.1258 9.68501 10.0014 9.56106C9.87708 9.43711 9.72739 9.34155 9.56263 9.28092C9.39787 9.22029 9.22194 9.19605 9.04692 9.20984C8.74878 9.18017 8.45047 9.26464 8.21215 9.44622C7.97383 9.6278 7.81321 9.89298 7.76269 10.1883C7.72352 10.4382 7.73182 10.6933 7.78715 10.9401C8.19484 12.619 13.5087 13.5224 14.0901 16.5556C14.2356 17.3422 14.2436 18.1481 14.1137 18.9374C13.7737 21.3436 11.6896 22.2462 9.16841 22.2462C6.5233 22.2462 4.07715 21.2678 4.07715 18.0348ZM49.6058 17.9842V16.8818H53.315V18.2606C53.306 18.441 53.3363 18.6212 53.4037 18.7888C53.4711 18.9564 53.574 19.1074 53.7054 19.2314C53.8367 19.3554 53.9934 19.4494 54.1646 19.5071C54.3358 19.5647 54.5174 19.5845 54.697 19.5652C55.0019 19.608 55.3116 19.5335 55.5636 19.3567C55.8156 19.1799 55.9911 18.9141 56.0547 18.6129C56.1552 18.2676 56.1469 17.8998 56.031 17.5594C55.3273 15.7052 50.4049 14.8531 49.7762 11.9194C49.6475 11.2832 49.6392 10.6286 49.7517 9.98935C50.1399 7.65817 52.1522 6.80935 54.6 6.80935C56.5643 6.80935 59.2795 7.31081 59.2795 10.4191V11.422H55.8125V10.5397C55.8263 10.3667 55.8027 10.1926 55.7433 10.0295C55.684 9.8663 55.5902 9.71781 55.4684 9.59407C55.3466 9.47034 55.1996 9.37424 55.0374 9.31231C54.8752 9.25037 54.7015 9.22405 54.5283 9.23512C54.2359 9.20068 53.9415 9.28053 53.7066 9.458C53.4717 9.63547 53.3144 9.89683 53.2677 10.1875C53.2281 10.4373 53.2362 10.6924 53.2913 10.9393C53.6786 12.6198 58.9395 13.4971 59.5233 16.5051C59.6687 17.2832 59.6767 18.0807 59.5469 18.8616C59.2077 21.2686 57.1473 22.1459 54.6506 22.1459C52.0307 22.1459 49.6058 21.1683 49.6058 17.9842ZM62.8908 18.5118C62.8567 18.1949 62.8486 17.8759 62.8664 17.5578V7.18035H66.406V17.8839C66.4014 18.0682 66.4093 18.2527 66.4296 18.4359C66.5015 18.7354 66.6722 19.002 66.9141 19.1927C67.1561 19.3834 67.4551 19.4871 67.7632 19.4871C68.0712 19.4871 68.3703 19.3834 68.6122 19.1927C68.8541 19.002 69.0248 18.7354 69.0967 18.4359C69.1177 18.2527 69.1259 18.0683 69.1212 17.8839V7.18035H72.6608V17.5578C72.6608 17.8342 72.6363 18.3601 72.6363 18.5109C72.3917 21.2172 70.3329 22.0986 67.7636 22.0986C65.1943 22.0986 63.1338 21.218 62.8908 18.5109V18.5118ZM92.0319 18.3609C91.9964 18.0447 91.9803 17.7267 91.9838 17.4085V11.3201C91.9838 11.0689 92.0074 10.618 92.0319 10.3669C92.3466 7.66061 94.456 6.80772 96.9535 6.80772C99.4266 6.80772 101.608 7.6598 101.851 10.3669C101.88 10.6837 101.888 11.0022 101.874 11.3201V11.7962H98.3356V10.9939C98.3361 10.8088 98.32 10.6241 98.2875 10.4419C98.2017 10.1382 98.019 9.87087 97.7674 9.68048C97.5157 9.49009 97.2088 9.38707 96.8932 9.38707C96.5776 9.38707 96.2707 9.49009 96.019 9.68048C95.7673 9.87087 95.5847 10.1382 95.4989 10.4419C95.458 10.6647 95.4419 10.8914 95.4508 11.1178V17.7363C95.4467 17.9207 95.4549 18.1051 95.4752 18.2883C95.555 18.6116 95.748 18.8956 96.0192 19.0887C96.2905 19.2819 96.6219 19.3714 96.9535 19.341C97.2797 19.3722 97.6059 19.2821 97.8697 19.0879C98.1336 18.8937 98.3166 18.609 98.3837 18.2883C98.4164 18.1062 98.4246 17.9206 98.4082 17.7363V15.6277H96.978V13.5216H101.923V17.4069C101.927 17.7251 101.91 18.0431 101.874 18.3593C101.63 20.9913 99.4282 21.9192 96.9527 21.9192C94.4772 21.9192 92.274 20.9922 92.0319 18.3609ZM42.7011 21.6445L42.6 8.25829L40.1759 21.6445H36.6363L34.2358 8.25829L34.1396 21.6445H30.6481L30.9384 7.20563H36.6363L38.4048 18.4857L40.1759 7.20563H45.8729L46.1877 21.6445H42.7011ZM24.0818 21.6445L22.1877 8.25829L20.247 21.6445H16.4661L19.0346 7.20563H25.2657L27.8358 21.6445H24.0818ZM83.3317 21.4944L79.8133 9.48708L80.0074 21.4944H76.5648V7.20563H81.7531L85.0506 18.8371L84.8557 7.20563H88.3219V21.4944H83.3317Z" fill="black"/>
</svg>
